<?xml version="1.0" standalone="no"?>
<!DOCTYPE svg PUBLIC "-//W3C//DTD SVG 20010904//EN"
 "http://www.w3.org/TR/2001/REC-SVG-20010904/DTD/svg10.dtd">
<svg version="1.0" xmlns="http://www.w3.org/2000/svg"
 width="16.000000pt" height="16.000000pt" viewBox="0 0 16.000000 16.000000"
 preserveAspectRatio="xMidYMid meet">
<metadata>
Created by potrace 1.11, written by Peter Selinger 2001-2013
</metadata>
<g transform="translate(0.000000,16.000000) scale(0.002296,-0.002296)"
fill="#000000" stroke="none">
<path d="M3327 6754 c-1 -1 -45 -5 -97 -8 -52 -4 -108 -9 -125 -11 -16 -2 -48
-6 -70 -9 -88 -11 -194 -31 -305 -58 -47 -11 -89 -21 -95 -22 -43 -9 -228 -70
-315 -103 -8 -3 -19 -7 -25 -9 -37 -9 -347 -158 -405 -194 -8 -5 -58 -35 -110
-67 -83 -49 -142 -89 -239 -160 -180 -132 -410 -350 -556 -527 -22 -27 -46
-55 -52 -62 -7 -7 -13 -17 -13 -23 0 -6 -4 -11 -8 -11 -5 0 -26 -26 -48 -57
-21 -32 -41 -60 -44 -63 -6 -5 -77 -112 -95 -142 -5 -9 -32 -54 -60 -100 -56
-94 -109 -199 -107 -210 1 -5 -2 -8 -8 -8 -5 0 -10 -4 -10 -10 0 -5 -13 -38
-30 -72 -16 -34 -30 -65 -30 -70 0 -4 -9 -27 -19 -51 -17 -38 -39 -96 -84
-227 -17 -50 -50 -167 -63 -230 -3 -14 -7 -32 -9 -40 -2 -8 -4 -15 -5 -15 -1
0 -3 -9 -5 -20 -1 -11 -5 -33 -9 -50 -4 -16 -9 -46 -12 -65 -2 -19 -9 -57 -14
-85 -9 -49 -14 -86 -27 -235 -13 -147 -6 -539 11 -626 2 -11 7 -45 10 -75 5
-47 37 -227 51 -284 3 -11 7 -29 9 -40 24 -106 95 -332 133 -423 8 -20 15 -38
15 -39 -3 -7 158 -344 169 -353 3 -3 19 -30 36 -61 17 -30 57 -95 90 -144 32
-48 63 -95 68 -104 11 -19 106 -143 115 -151 3 -3 25 -30 50 -60 90 -111 300
-326 350 -358 14 -9 30 -24 37 -33 17 -23 218 -173 332 -248 217 -143 473
-268 723 -352 80 -27 155 -52 165 -54 10 -2 51 -13 91 -24 39 -10 72 -17 72
-15 0 3 8 1 18 -5 9 -5 39 -12 66 -15 27 -4 52 -9 56 -11 5 -3 28 -7 125 -19
22 -3 58 -8 80 -11 198 -26 544 -25 765 1 30 4 63 7 73 8 9 0 17 3 17 6 0 3
12 6 28 6 15 1 45 4 67 8 22 3 52 8 67 10 15 2 31 7 36 10 5 3 24 8 43 11 19
3 52 11 74 17 22 5 45 11 50 12 30 6 203 63 285 93 489 181 949 496 1290 882
36 41 70 79 77 86 44 46 221 295 284 402 78 131 208 381 215 413 1 7 22 60 33
85 14 31 61 159 66 181 3 10 16 57 31 104 14 47 27 93 29 103 2 10 6 26 9 35
3 9 7 28 10 42 2 14 14 70 25 125 11 55 23 123 26 150 3 28 7 60 9 71 25 124
26 595 2 759 -3 17 -7 53 -10 82 -3 28 -8 57 -10 65 -3 7 -7 31 -11 53 -3 22
-9 59 -14 83 -4 23 -7 42 -4 42 2 0 -1 8 -6 18 -5 9 -11 31 -14 49 -22 137
-146 482 -249 689 -201 405 -516 805 -837 1064 -63 50 -115 92 -147 117 -47
36 -158 113 -174 120 -8 4 -33 19 -54 35 -21 15 -45 28 -53 28 -7 0 -13 3 -13
8 0 4 -10 12 -23 18 -12 7 -83 43 -157 81 -185 96 -439 195 -582 229 -5 1 -9
2 -10 4 -2 1 -10 3 -18 5 -8 2 -24 6 -35 9 -82 21 -311 65 -358 70 -31 3 -61
7 -65 10 -18 11 -533 30 -545 20z m398 -459 c39 -4 84 -8 100 -10 26 -2 124
-18 190 -29 11 -2 62 -14 113 -26 l92 -22 1 -66 c1 -37 2 -103 4 -147 2 -44 4
-115 5 -158 2 -58 10 -97 32 -155 16 -42 31 -84 33 -92 1 -8 17 -49 33 -90 30
-74 29 -91 -2 -96 -8 -1 -33 -5 -56 -8 -23 -3 -74 -17 -113 -32 -40 -14 -76
-27 -82 -28 -5 -1 -14 -4 -20 -8 -5 -3 -39 -15 -75 -27 -61 -19 -327 -111
-360 -125 -21 -8 -289 -101 -380 -132 -41 -14 -82 -28 -90 -31 -8 -4 -17 -7
-20 -8 -3 -1 -12 -4 -20 -8 -8 -3 -37 -13 -65 -22 -27 -10 -59 -21 -70 -26
-11 -4 -85 -31 -165 -58 -209 -71 -522 -180 -540 -188 -8 -3 -20 -7 -27 -9
-18 -3 -113 -51 -158 -79 -22 -13 -53 -31 -70 -40 -16 -8 -43 -23 -60 -33 -46
-29 -343 -201 -405 -235 -30 -17 -57 -33 -60 -36 -3 -3 -27 -17 -53 -31 -44
-22 -73 -51 -63 -61 3 -2 7 -74 10 -159 4 -85 9 -209 12 -275 4 -66 7 -178 8
-249 l1 -129 -90 -29 c-49 -16 -182 -59 -295 -96 -113 -36 -207 -67 -210 -67
-3 0 -29 -9 -58 -19 -29 -10 -55 -16 -57 -15 -8 10 -18 190 -18 344 0 193 8
304 34 458 6 32 12 70 14 85 5 36 8 49 38 167 113 445 347 874 662 1213 80 86
224 222 283 267 7 6 18 15 25 21 59 51 187 138 377 254 32 20 238 119 300 145
100 42 278 102 355 120 17 4 37 9 45 11 48 12 99 23 125 28 17 2 39 7 50 9 12
3 48 8 80 12 33 4 69 9 80 12 11 2 58 6 105 10 47 3 86 6 87 7 6 5 325 -2 388
-9z m1050 -305 c49 -25 94 -48 100 -53 5 -4 51 -32 100 -63 50 -31 110 -71
135 -90 25 -19 58 -44 75 -56 108 -83 256 -217 347 -316 48 -52 44 -54 -92
-38 -71 9 -111 13 -185 21 -33 3 -76 8 -95 10 -19 3 -60 7 -90 10 -30 3 -68 8
-85 10 -16 2 -57 7 -90 10 -65 7 -73 11 -80 41 -2 10 -29 87 -60 169 -31 83
-61 164 -66 182 -11 37 -19 215 -9 211 3 -2 46 -23 95 -48z m5 -995 c19 -2 55
-6 80 -9 80 -10 154 -18 195 -21 22 -2 62 -7 89 -10 26 -3 63 -8 81 -9 18 -2
38 -6 43 -10 10 -6 9 -167 -2 -881 -3 -176 -8 -498 -11 -715 -4 -217 -8 -396
-9 -398 -2 -1 -48 -4 -102 -7 -55 -2 -164 -7 -244 -10 -80 -4 -179 -8 -220
-10 -41 -2 -151 -7 -245 -11 -194 -9 -372 -9 -730 1 -137 3 -335 8 -440 10
-104 2 -298 7 -430 10 -132 3 -314 8 -405 10 -91 2 -286 7 -435 10 -148 4
-296 7 -328 7 -32 1 -56 3 -53 5 2 3 62 24 133 47 l128 43 -1 59 c-2 82 -14
365 -19 444 -2 36 -6 142 -10 236 l-5 172 32 16 c18 10 50 27 70 39 21 12 61
35 90 51 29 15 60 34 69 42 8 8 18 14 22 14 3 0 61 32 127 71 99 57 163 84
338 145 120 42 226 79 237 84 11 5 81 30 155 55 263 91 335 116 355 125 11 5
49 18 85 30 125 43 287 99 597 208 172 61 329 113 350 117 21 3 45 7 53 10 8
2 35 6 60 10 25 3 74 12 110 19 60 12 99 12 190 1z m1183 -193 c69 -133 141
-304 183 -432 30 -92 89 -329 98 -390 3 -25 8 -56 11 -70 3 -14 8 -45 10 -70
2 -25 7 -76 11 -115 14 -138 7 -512 -12 -610 -2 -11 -7 -40 -10 -65 -3 -25 -7
-52 -9 -60 -5 -17 -16 -76 -20 -105 -2 -11 -4 -21 -5 -22 -3 -4 -4 -6 -19 -76
-7 -32 -24 -91 -37 -130 -14 -40 -24 -72 -24 -72 2 0 -11 -36 -42 -120 -35
-96 -145 -333 -159 -345 -3 -3 -20 -31 -37 -62 -28 -52 -138 -222 -162 -251
-6 -7 -19 -23 -30 -37 l-21 -25 6 710 c3 391 8 861 11 1045 4 184 7 435 8 557
0 123 5 223 9 223 5 0 6 4 3 8 -7 12 -7 39 -3 349 3 149 7 275 10 280 3 4 41
9 84 10 l79 2 67 -127z m-4399 -1989 c-2 -71 -6 -222 -8 -338 -3 -115 -8 -313
-12 -440 -7 -273 -12 -461 -13 -529 l-1 -50 -36 35 c-32 30 -135 145 -189 210
-163 196 -328 477 -425 720 -42 105 -90 245 -90 265 0 6 33 21 73 33 39 13 88
29 108 36 20 8 39 11 43 8 3 -4 6 -2 6 3 0 5 8 10 18 11 9 1 51 14 92 28 41
14 82 27 90 30 8 2 51 15 95 30 44 14 87 28 95 30 8 2 40 13 70 24 92 33 88
39 84 -106z m631 -323 c37 1 19 2 220 -4 159 -5 312 -9 855 -21 118 -3 305 -8
415 -10 345 -9 614 -9 790 -1 481 23 613 28 694 30 l75 1 -1 -263 c-1 -145 -3
-266 -6 -268 -3 -3 -1 -19 3 -35 5 -16 6 -29 2 -29 -9 0 -7 -94 2 -108 4 -7 4
-12 -1 -12 -4 0 -8 -110 -8 -245 l1 -245 -86 -64 c-326 -243 -768 -439 -1135
-501 -11 -2 -29 -6 -40 -8 -18 -4 -92 -15 -150 -23 -142 -18 -443 -23 -595
-10 -128 12 -130 12 -170 20 -19 3 -46 8 -60 10 -14 3 -25 5 -25 6 0 1 -13 3
-30 5 -16 2 -51 9 -76 15 -26 6 -53 13 -60 14 -8 1 -34 8 -59 15 -25 7 -52 15
-60 16 -129 29 -433 160 -616 268 l-102 59 3 141 c12 533 31 1234 34 1247 0 3
36 4 79 3 42 -2 91 -3 107 -3z"/>
</g>
</svg>
